<svg id="Calque_1" xmlns="http://www.w3.org/2000/svg" viewBox="0 0 638.7 127.4" width="200px"><style>.st1{fill:#ff671f}</style><path d="M371.4 33.4c-3.3 0-7.3-1.3-9.9-3l1.9-6.1c2.4 1.7 5.4 2.8 8.2 2.8 2.4 0 3.3-1.1 3.3-2.6s-.8-2.6-5.2-4.3c-5.1-2.1-6.9-5.1-6.9-8.6 0-4.3 3.5-8.4 10.3-8.4 3.2 0 6.5 1.1 8.2 2.3l-1.7 6.1c-1.7-1.2-4.4-2.4-6.5-2.4-2.5 0-3.5 1.2-3.5 2.4 0 1.9 1.5 2.6 5.1 4.1 5.5 2.3 7.1 4.9 7.1 8.7.1 4.6-3.3 9-10.4 9zm39-.4l-.4-14.4-8.1 10.2h-.7L393 18.6l-.3 14.4h-6.5l1.4-29.4.9-.1 13.2 16.7 12.9-16.7.9.1L417 33h-6.6zm30.3 0l-2.2-5.3h-10.1l-2.2 5.3h-6.9l13.8-29.5h.9L447.8 33h-7.1zm-7.2-17.5l-2.9 7h5.8l-2.9-7zM466.1 33l-5-9.5h-1.2c-1 0-1.6 0-2.5-.1V33h-6.8V4c2.5-.3 5.2-.5 8.6-.5 9.1 0 12.7 4.3 12.7 9.7 0 3.5-1.9 6.6-5 8.5l6.9 11.3h-7.7zM460 9.6c-1 0-1.7 0-2.6.2v8.1c.9.1 1.4.1 2.2.1 3.2 0 5.3-1.6 5.3-4.5 0-2.5-2-3.9-4.9-3.9zm30.1.4v23h-6.8V10h-8.8V3.7h24.3V10h-8.7zM379.4 77.1l-2.2-5.3h-10.1l-2.2 5.3H358l13.8-29.5h.9l13.8 29.5h-7.1zm-7.2-17.5l-2.9 7h5.8l-2.9-7zm41.4 1.1v14c-3.2 1.9-6.7 3-11.1 3-8.6 0-15.4-6.1-15.4-15.1s6.9-15.1 15.7-15.1c3.8 0 6.9 1 9.8 2.5l-2.8 5.5c-2.1-1.1-4.3-1.6-6.5-1.6-5.8 0-8.9 3.6-8.9 8.8 0 5.6 3.7 9.1 8.5 9.1 2.2 0 3.2-.2 4.3-.8v-4.3h-5.9v-5.8h12.3zm20.9 16.4l-5-9.5h-1.2c-1 0-1.6 0-2.5-.1v9.6H419v-29c2.5-.3 5.2-.5 8.6-.5 9.1 0 12.7 4.3 12.7 9.7 0 3.5-1.9 6.6-5 8.5l6.9 11.3h-7.7zm-6-23.3c-1 0-1.7 0-2.6.2v8c.9.1 1.4.1 2.2.1 3.2 0 5.3-1.6 5.3-4.5-.1-2.4-2-3.8-4.9-3.8zM446 77.1V47.9h6.8v29.2H446zm28.4.5c-9.5 0-16-6.4-16-15.1s6.5-15.1 16-15.1c3.4 0 6.5 1 9.1 2.6l-2.1 5.7c-2.2-1.2-4.6-2-7-2-5.5 0-8.9 3.4-8.9 8.8s3.4 8.8 8.9 8.8c2.4 0 5.1-.8 7.3-2.2l2 5.7c-2.5 1.8-6 2.8-9.3 2.8zm25.8 0c-7.9 0-12.2-4.2-12.2-12.4V47.9h6.8v16.9c0 4.1 1.8 6.7 5.6 6.7s5.6-2.5 5.6-6.7V47.9h6.8v17.3c-.1 8.2-4.8 12.4-12.6 12.4zm18.5-.5V47.9h6.8V71h11.7v6.2h-18.5zm31.4-23v23h-6.8v-23h-8.8v-6.2h24.3v6.2h-8.7zM575 77.6c-7.9 0-12.2-4.2-12.2-12.4V47.9h6.8v16.9c0 4.1 1.8 6.7 5.6 6.7s5.6-2.5 5.6-6.7V47.9h6.8v17.3c-.1 8.2-4.8 12.4-12.6 12.4zm33.9-.5l-5-9.5h-1.2c-1 0-1.6 0-2.5-.1v9.6h-6.8v-29c2.5-.3 5.2-.5 8.6-.5 9.1 0 12.7 4.3 12.7 9.7 0 3.5-1.9 6.6-5 8.5l6.9 11.3h-7.7zm-6-23.3c-1 0-1.7 0-2.6.2v8c.9.1 1.4.1 2.2.1 3.2 0 5.3-1.6 5.3-4.5-.1-2.4-2-3.8-4.9-3.8zm17.3 23.3V47.9h18.5v6.2H627v5.2h10.7v5.9H627V71h11.7v6.2h-18.5z" fill="#222"/><path class="st1" d="M33.8 33.1c-14.1-1.4-16.8-4.3-16.8-9 0-8 11.4-8.6 14.9-8.6 12.4-.1 14.7 8.4 15.3 9.5.5 0 13.6.1 14.6 0 0-3.4-4.8-23.7-29.9-23.7-18.4 0-30.3 9-30.3 22.8 0 17.8 14 21.5 29 22.9 15.9 1.5 17.1 4.7 17.1 9.3 0 5.3-6.5 9.1-15.6 9.1-15.2 0-16.5-10.9-16.5-10.9L0 54.4c.3 6 5.3 25.2 32.2 25.2 18.5 0 30.6-8.8 30.6-22.5 0-15.1-8.1-21.9-29-24z"/><circle class="st1" cx="341.7" cy="9" r="9"/><path class="st1" d="M299.7 72.7c19.9 0 36.1-16.2 36.1-36.1 0-19.9-16.2-36.1-36.1-36.1-19.9 0-36.1 16.2-36.1 36.1 0 19.9 16.2 36.1 36.1 36.1zm0-56.6c11.3 0 20.5 9.2 20.5 20.5s-9.2 20.5-20.5 20.5-20.5-9.2-20.5-20.5 9.2-20.5 20.5-20.5zm13.6 62.5h-40v15.2c0 22.6 10.5 33.5 32.2 33.5h7.8c15.4 0 26.7-10.3 26.7-24.4-.1-14-11.3-24.3-26.7-24.3zm0 34.4h-7.8c-13.4 0-17.9-4.7-17.9-18.6V93h25.7c6 0 12.3 2.6 12.3 10s-6.4 10-12.3 10zm-138-84.9c0-15.5-12.4-26.8-29.4-26.8-8.8 0-16.3 3-21.6 8.1-5.2-5.1-12.8-8.1-21.6-8.1-17 0-29.4 11.3-29.4 26.8v49.3h15.5V27.5c.3-7.9 7.6-10.8 13.9-10.8 6.1 0 13.2 2.7 13.8 10.2v50.5H132V26.9c.7-7.5 7.7-10.2 13.8-10.2 6.4 0 13.9 3 13.9 11.3v49.3h15.5l.1-49.2zm78 8.4c-.3-24.1-11-35.3-33.6-35.3-16.2 0-29.2 8.5-31.2 22.4h17.1c1.5-7.1 10.3-7.8 13.9-7.8 12 0 17.7 4.3 18.3 15.9l-.2-.1c-4.6-.9-10.7-1.8-16-1.8-22.2 0-34.4 8.5-34.4 25.5 0 17.7 13.2 23.8 35 23.8 9.8 0 20.8-1.1 31.2-3.1l-.1-39.5zm-32.4 28.9c-13.4 0-18.1-4-18.1-10.4 0-7 4.1-10.8 19.6-10.8 5.2 0 11.9 1 15.2 2.2v17.7c.1 0-4.3 1.3-16.7 1.3z"/></svg>
