<?xml version="1.0" encoding="utf-8"?>
<!-- Generator: Adobe Illustrator 18.0.0, SVG Export Plug-In . SVG Version: 6.00 Build 0)  -->
<!DOCTYPE svg PUBLIC "-//W3C//DTD SVG 1.1//EN" "http://www.w3.org/Graphics/SVG/1.1/DTD/svg11.dtd">
<svg version="1.1" id="Calque_1" xmlns="http://www.w3.org/2000/svg" xmlns:xlink="http://www.w3.org/1999/xlink" x="0px" y="0px"
	 viewBox="0 0 61.8 61.8" enable-background="new 0 0 61.8 61.8" xml:space="preserve">
<g>
	<g>
		<circle fill="#E5E6E7" cx="30.9" cy="30.9" r="30.9"/>
	</g>
	<g>
		<path fill="#FEAD49" d="M30.9,16.3c0,0,2.4,2.9,7.9,3.7c5.3,0.8,6.9-1,6.9-1s4,19.4-14.8,28.5C12.2,38.4,16.1,19,16.1,19
			s1.6,1.8,6.9,1C28.5,19.2,30.9,16.3,30.9,16.3z"/>
		<path fill="#FA912B" d="M45.7,19c0,0-1.6,1.8-6.9,1c-5.5-0.8-7.9-3.7-7.9-3.7v31.2C49.6,38.4,45.7,19,45.7,19z"/>
	</g>
</g>
</svg>
