<?xml version="1.0" encoding="utf-8"?>
<!-- Generator: Adobe Illustrator 18.0.0, SVG Export Plug-In . SVG Version: 6.00 Build 0)  -->
<!DOCTYPE svg PUBLIC "-//W3C//DTD SVG 1.1//EN" "http://www.w3.org/Graphics/SVG/1.1/DTD/svg11.dtd">
<svg version="1.1" id="Calque_1" xmlns="http://www.w3.org/2000/svg" xmlns:xlink="http://www.w3.org/1999/xlink" x="0px" y="0px"
	 viewBox="0 0 61.8 61.8" enable-background="new 0 0 61.8 61.8" xml:space="preserve">
<g>
	<circle fill="#E5E6E7" cx="30.9" cy="30.9" r="30.9"/>
	<g>
		<path fill="#F78A82" d="M36.7,49.1h8.9c0,0,15-15.6,1.9-29.8C35.9,6.7,22.2,16,22.2,16s-2.5-2.3-8.7-2.3l2.5,6.1
			c0,0-4.9,3.2-4.9,7.3l-4.4-0.6c0,0-2.1,8.4,3.3,12.3l4.4-0.5c0,0,2.8,2.7,5.3,5l-1.4,5.9h8.6l1.5-2.5l8,0L36.7,49.1z"/>
		<ellipse fill="#352A28" cx="15" cy="27.3" rx="1.6" ry="1.6"/>
		<path d="M39.9,18.2c-7.1-5.3-12.5-0.3-12.7,0l-0.7-0.8c0.1-0.1,6.3-5.9,14.1,0L39.9,18.2z"/>
		<path fill="#EE5552" d="M52.7,34.5c0,0-19.8,19.5-38.6-0.3l-7.4-0.3c0,0,1.2,4,3.2,4.9l4.4-0.5l5.3,5l-1.4,5.9h8.6l1.5-2.5l8,0
			l0.3,2.5h8.9C45.6,49.1,51.3,43.7,52.7,34.5z"/>
	</g>
</g>
</svg>
