<?xml version="1.0" encoding="utf-8"?>
<!-- Generator: Adobe Illustrator 18.0.0, SVG Export Plug-In . SVG Version: 6.00 Build 0)  -->
<!DOCTYPE svg PUBLIC "-//W3C//DTD SVG 1.1//EN" "http://www.w3.org/Graphics/SVG/1.1/DTD/svg11.dtd">
<svg version="1.1" id="Calque_1" xmlns="http://www.w3.org/2000/svg" xmlns:xlink="http://www.w3.org/1999/xlink" x="0px" y="0px"
	 viewBox="0 0 61.8 61.8" enable-background="new 0 0 61.8 61.8" xml:space="preserve">
<g>
	<circle fill="#E5E6E7" cx="30.9" cy="30.9" r="30.9"/>
	<g>
		<g>
			<path fill="#FFFFFF" d="M7.9,33.8l-1.3-0.4c0.1-0.5,0.2-1.1,0.4-1.7c0.5-2.6,1.2-6.5,5.4-9.8c4-3.2,7-2.8,9.9-2.4
				c1.7,0.2,3.4,0.4,5.3-0.1c1.8-0.5,3.4-1.3,5-2.2c3-1.6,6.1-3.3,10.9-2.6c5,0.8,6.4,3.6,7.7,6.1c0.4,0.8,0.8,1.6,1.3,2.2l-1.1,0.8
				c-0.6-0.8-1-1.6-1.4-2.5c-1.2-2.4-2.4-4.7-6.7-5.4c-4.4-0.7-7.1,0.8-10.1,2.4c-1.6,0.9-3.3,1.8-5.3,2.3c-2.2,0.6-4,0.3-5.8,0.1
				c-2.8-0.4-5.3-0.7-8.8,2.1c-3.8,3-4.4,6.4-4.9,8.9C8.2,32.6,8.1,33.2,7.9,33.8z"/>
		</g>
		<g>
			<path fill="#FFFFFF" d="M18.4,47.4c-0.2,0-0.4,0-0.7,0c-4.9-0.3-9-2.1-10.8-5c-1.5-2.3-1.6-5.1-0.3-8.4l1.3,0.5
				c-1.1,2.9-1,5.3,0.2,7.2c1.6,2.5,5.3,4.1,9.8,4.3c3.9,0.2,7.2-1.7,10.1-3.3c1.8-1,3.4-2,5.1-2.3l0.3,1.3c-1.4,0.3-3,1.2-4.7,2.2
				C25.6,45.5,22.4,47.4,18.4,47.4z"/>
		</g>
		<g>
			<path fill="#FFFFFF" d="M33.3,41.9l-0.4-1.3c2.5-0.8,4.8-0.6,7-0.4c3.5,0.3,6.8,0.6,10.8-2.2c2.5-1.8,3.9-3.7,4-5.8
				c0.2-3.3-2.7-6-2.7-6l0.9-1c0.1,0.1,3.4,3.2,3.2,7.1c-0.2,2.5-1.7,4.8-4.6,6.8c-4.4,3.1-8.1,2.8-11.7,2.5
				C37.6,41.4,35.5,41.2,33.3,41.9z"/>
		</g>
		<g>
			<g>
				<path fill="#FFFFFF" d="M27.4,18.2c-13,3.1-22.3,10.9-20.8,17.5c1.6,6.5,13.4,9.3,26.4,6.2c13-3.1,22.3-10.9,20.8-17.5
					C52.3,17.9,40.5,15.1,27.4,18.2z M31,33.2c-7.1,1.7-13.4,1.2-13.9-1.2c-0.6-2.3,4.8-5.6,11.9-7.3c7.1-1.7,13.4-1.2,13.9,1.2
					C43.5,28.3,38.2,31.5,31,33.2z"/>
			</g>
			<g>
				<path fill="#D52427" d="M37.6,40.6c0,0-0.1-3.5-0.9-6.1c-0.4-1.3-1.2-2.7-1.2-2.7c-1.4,0.5-2.9,1-4.5,1.4
					c-1.6,0.4-3.2,0.7-4.7,0.8c0,0-0.2,1.3,0.1,3.2c0.4,2.2,2,5.5,2,5.5c1.5-0.2,3.1-0.5,4.7-0.9C34.7,41.6,36.2,41.1,37.6,40.6z"/>
			</g>
			<g>
				<path fill="#D52427" d="M23.4,19.4c0,0-0.1,1.6,0.2,2.9c0.5,1.9,1.3,3.6,1.3,3.6c1.2-0.4,2.6-0.8,4-1.2c1.4-0.3,2.8-0.6,4.1-0.8
					c0,0,0-2.1-0.5-3.9c-0.4-1.6-1.1-2.6-1.1-2.6c-1.3,0.2-2.7,0.5-4.1,0.8C26,18.6,24.7,19,23.4,19.4z"/>
			</g>
			<g>
				<g>
					<path fill="#D52427" d="M17.4,32.8c-0.2-0.2-0.3-0.4-0.4-0.7c-0.1-0.6,0.1-1.2,0.5-1.8c0,0,0,0,0,0c-2.3-3.7-9.6-1.7-10.8,1.9
						l0,0c-0.3,1.2-0.4,2.4-0.1,3.5c0.1,0.6,0.3,1.1,0.6,1.6C7.2,33.5,13.4,30.8,17.4,32.8z"/>
				</g>
			</g>
			<g>
				<g>
					<path fill="#D52427" d="M42.9,26.7c0.1-0.3,0.1-0.5,0-0.8c-0.1-0.6-0.6-1-1.3-1.4c0,0,0,0,0,0c0.4-4.3,7.8-5.8,10.5-3.1l0,0
						c0.8,0.9,1.4,1.9,1.7,3.1C54,25,54,25.6,54,26.1C52.4,22.7,45.6,23.1,42.9,26.7z"/>
				</g>
			</g>
		</g>
	</g>
</g>
</svg>
