<?xml version="1.0" encoding="utf-8"?>
<!-- Generator: Adobe Illustrator 18.0.0, SVG Export Plug-In . SVG Version: 6.00 Build 0)  -->
<!DOCTYPE svg PUBLIC "-//W3C//DTD SVG 1.1//EN" "http://www.w3.org/Graphics/SVG/1.1/DTD/svg11.dtd">
<svg version="1.1" id="Calque_1" xmlns="http://www.w3.org/2000/svg" xmlns:xlink="http://www.w3.org/1999/xlink" x="0px" y="0px"
	 viewBox="0 0 513.7 206.8" enable-background="new 0 0 513.7 206.8" xml:space="preserve">
<g>
	<polygon fill="#FFFFFF" points="97.9,104.4 127.4,86.2 97.9,68.8 68.4,86.4 	"/>
	<polygon fill="#E5E4E4" points="97.9,137.9 127.4,120 127.4,86.2 97.9,104.1 	"/>
	<polygon fill="#F3F4F5" points="68.4,120.2 97.9,138.2 97.9,104.4 68.4,86.4 	"/>
	<g>
		<g>
			<path fill="#FFFFFF" d="M224.5,147.8h-16v44.4H202v-44.4h-16v-5.4h38.5V147.8z"/>
			<path fill="#FFFFFF" d="M260,169.2h-21.6v17.6h25.1v5.4h-31.6v-49.8h31.3v5.4h-24.7v16H260V169.2z"/>
			<path fill="#FFFFFF" d="M308.3,176.4c-0.6,5.3-2.6,9.3-5.8,12.2c-3.3,2.9-7.6,4.3-13,4.3c-5.9,0-10.6-2.1-14.1-6.3
				c-3.5-4.2-5.3-9.9-5.3-16.9v-4.8c0-4.6,0.8-8.7,2.5-12.2c1.7-3.5,4-6.2,7-8.1c3-1.9,6.5-2.8,10.5-2.8c5.3,0,9.5,1.5,12.7,4.4
				c3.2,3,5,7,5.6,12.3h-6.6c-0.6-4-1.8-6.9-3.7-8.6c-1.9-1.8-4.6-2.7-8-2.7c-4.2,0-7.5,1.6-9.9,4.7c-2.4,3.1-3.6,7.5-3.6,13.2v4.8
				c0,5.4,1.1,9.7,3.4,12.9c2.3,3.2,5.4,4.8,9.5,4.8c3.6,0,6.4-0.8,8.4-2.5c1.9-1.7,3.2-4.5,3.9-8.6H308.3z"/>
			<path fill="#FFFFFF" d="M355.5,192.2h-6.6v-23h-25.1v23h-6.6v-49.8h6.6v21.4h25.1v-21.4h6.6V192.2z"/>
			<path fill="#FFFFFF" d="M422.8,192.2h-6.6v-23h-25.1v23h-6.6v-49.8h6.6v21.4h25.1v-21.4h6.6V192.2z"/>
			<path fill="#FFFFFF" d="M469.5,142.4v33.9c0,4.7-1.5,8.5-4.4,11.5c-2.9,3-6.9,4.7-11.9,5l-1.7,0.1c-5.4,0-9.8-1.5-13-4.4
				c-3.2-2.9-4.9-7-4.9-12.1v-33.9h6.5v33.7c0,3.6,1,6.4,3,8.4c2,2,4.8,3,8.5,3c3.7,0,6.6-1,8.5-3c2-2,3-4.8,3-8.4v-33.7H469.5z"/>
			<path fill="#FFFFFF" d="M479.9,192.2v-49.8h16.3c5.4,0,9.5,1.1,12.2,3.4c2.7,2.2,4.1,5.5,4.1,9.9c0,2.3-0.7,4.4-2,6.2
				c-1.3,1.8-3.1,3.2-5.4,4.2c2.7,0.8,4.8,2.2,6.4,4.3c1.6,2.1,2.3,4.6,2.3,7.5c0,4.5-1.4,8-4.3,10.5c-2.9,2.6-7,3.8-12.3,3.8H479.9
				z M486.4,163.7h9.9c2.9,0,5.2-0.7,6.9-2.2c1.7-1.4,2.6-3.4,2.6-5.9c0-2.7-0.8-4.7-2.4-6c-1.6-1.2-4-1.9-7.3-1.9h-9.7V163.7z
				 M486.4,168.9v17.9h10.8c3.1,0,5.5-0.8,7.2-2.4c1.8-1.6,2.6-3.8,2.6-6.5c0-6-3.3-9-9.8-9H486.4z"/>
		</g>
	</g>
	<path fill="#FFFFFF" d="M97.9,139.6l-31.4-18.1V85.1L97.9,67l31.4,18.1v36.3L97.9,139.6z M70.3,119.2l27.6,15.9l27.6-15.9V87.3
		L97.9,71.4L70.3,87.3V119.2z"/>
	<path fill="#FB4800" d="M59.1,206.8L27,188.3v-37l32.1-18.5l32.1,18.5v37L59.1,206.8z M32.1,185.4l27,15.6l27-15.6v-31.1l-27-15.6
		l-27,15.6V185.4z"/>
	<path fill="#A7DD00" d="M59.1,74L27,55.5v-37L59.1,0l32.1,18.5v37L59.1,74z M32.1,52.6l27,15.6l27-15.6V21.4l-27-15.6l-27,15.6
		V52.6z"/>
	<path fill="#9733A2" d="M142,206.8L110,188.3v-37l32.1-18.5l32.1,18.5v37L142,206.8z M115,185.4l27,15.6l27-15.6v-31.1l-27-15.6
		l-27,15.6V185.4z"/>
	<g>
		<g>
			<g>
				<path fill="#FFFFFF" d="M3.4,74.9l21.2,48.8l21.3-48.8h2.8v51.6h-1.9V77.8l-21.4,48.8h-1.5L2.6,78v48.5H0.6V74.9H3.4z"/>
				<path fill="#FFFFFF" d="M48.7,74.9v51.6h-1.9V77.8l-21.4,48.8h-1.5L2.6,78v48.5H0.6V74.9h2.7l21.2,48.8l21.3-48.8H48.7
					 M49.3,74.3h-0.6h-2.8h-0.4l-0.2,0.4l-20.7,47.5L3.9,74.7l-0.2-0.4H3.4H0.6H0v0.6v51.6v0.6h0.6h1.9h0.6v-0.6V81l20.1,45.7
					l0.2,0.4h0.4h1.5h0.4l0.2-0.4l20.2-46v45.7v0.6h0.6h1.9h0.6v-0.6V74.9V74.3L49.3,74.3z"/>
			</g>
			<g>
				<path fill="#FFFFFF" d="M181.1,126.5h-1.9l-33.3-48.3v48.3h-1.9V74.9h1.9l33.3,48.2V74.9h1.9V126.5z"/>
				<path fill="#FFFFFF" d="M181.1,74.9v51.6h-1.9l-33.3-48.3v48.3h-1.9V74.9h1.9l33.3,48.2V74.9H181.1 M181.7,74.3h-0.6h-1.9h-0.6
					v0.6v46.2l-32.2-46.6l-0.2-0.3h-0.3h-1.9h-0.6v0.6v51.6v0.6h0.6h1.9h0.6v-0.6V80.2l32.2,46.7l0.2,0.3h0.3h1.9h0.6v-0.6V74.9
					V74.3L181.7,74.3z"/>
			</g>
			<g>
				<path fill="#FFFFFF" d="M230.9,76.8h-18.8v49.7h-1.9V76.8h-18.8v-1.9h39.5V76.8z"/>
				<path fill="#FFFFFF" d="M230.9,74.9v1.9h-18.8v49.7h-1.9V76.8h-18.8v-1.9H230.9 M231.6,74.3h-0.6h-39.5h-0.6v0.6v1.9v0.6h0.6
					h18.1v49v0.6h0.6h1.9h0.6v-0.6v-49h18.1h0.6v-0.6v-1.9V74.3L231.6,74.3z"/>
			</g>
			<g>
				<path fill="#FFFFFF" d="M244.2,104.7v21.8h-1.9V74.9h16.1c5.3,0,9.4,1.3,12.3,4c2.9,2.7,4.4,6.4,4.4,11.1
					c0,4.7-1.4,8.3-4.3,10.8s-6.9,3.9-12.1,3.9H244.2z M244.2,102.8h14.2c4.7,0,8.3-1.1,10.9-3.4c2.6-2.2,3.9-5.4,3.9-9.4
					c0-4.2-1.3-7.4-3.9-9.7c-2.6-2.3-6.2-3.5-10.9-3.5h-14.2V102.8z"/>
				<path fill="#FFFFFF" d="M258.4,74.9c5.3,0,9.4,1.3,12.3,4c2.9,2.7,4.4,6.4,4.4,11.1c0,4.7-1.4,8.3-4.3,10.8
					c-2.8,2.6-6.9,3.9-12.1,3.9h-14.5v21.8h-1.9V74.9H258.4 M244.2,102.8h14.2c4.7,0,8.3-1.1,10.9-3.4c2.6-2.2,3.9-5.4,3.9-9.4
					c0-4.2-1.3-7.4-3.9-9.7c-2.6-2.3-6.2-3.5-10.9-3.5h-14.2V102.8 M258.4,74.3h-16.1h-0.6v0.6v51.6v0.6h0.6h1.9h0.6v-0.6v-21.2
					h13.8c5.4,0,9.6-1.4,12.6-4.1c3-2.7,4.5-6.5,4.5-11.3c0-4.9-1.5-8.8-4.6-11.5C268.1,75.7,263.8,74.3,258.4,74.3L258.4,74.3z
					 M244.8,77.5h13.6c4.5,0,8,1.1,10.4,3.3c2.4,2.2,3.7,5.3,3.7,9.3c0,3.8-1.2,6.8-3.7,8.9c-2.5,2.1-6,3.2-10.4,3.2h-13.6V77.5
					L244.8,77.5z"/>
			</g>
			<g>
				<path fill="#FFFFFF" d="M316,100.9h-25.9v23.7h29.5v1.9h-31.4V74.9h31.4v1.9h-29.5V99H316V100.9z"/>
				<path fill="#FFFFFF" d="M319.6,74.9v1.9h-29.5V99H316v1.9h-25.9v23.7h29.5v1.9h-31.4V74.9H319.6 M320.2,74.3h-0.6h-31.4h-0.6
					v0.6v51.6v0.6h0.6h31.4h0.6v-0.6v-1.9V124h-0.6h-28.8v-22.4H316h0.6v-0.6V99v-0.6H316h-25.2V77.5h28.8h0.6v-0.6v-1.9V74.3
					L320.2,74.3z"/>
			</g>
			<g>
				<path fill="#FFFFFF" d="M333.8,124.6h26.5v1.9h-28.4V74.9h1.9V124.6z"/>
				<path fill="#FFFFFF" d="M333.8,74.9v49.7h26.5v1.9h-28.4V74.9H333.8 M334.4,74.3h-0.6h-1.9h-0.6v0.6v51.6v0.6h0.6h28.4h0.6v-0.6
					v-1.9V124h-0.6h-25.8v-49V74.3L334.4,74.3z"/>
			</g>
			<g>
				<path fill="#FFFFFF" d="M373.6,124.6H400v1.9h-28.4V74.9h1.9V124.6z"/>
				<path fill="#FFFFFF" d="M373.6,74.9v49.7H400v1.9h-28.4V74.9H373.6 M374.2,74.3h-0.6h-1.9H371v0.6v51.6v0.6h0.6H400h0.6v-0.6
					v-1.9V124H400h-25.8v-49V74.3L374.2,74.3z"/>
			</g>
			<g>
				<path fill="#FFFFFF" d="M414.7,126.5h-1.9V74.9h1.9V126.5z"/>
				<path fill="#FFFFFF" d="M414.7,74.9v51.6h-1.9V74.9H414.7 M415.4,74.3h-0.6h-1.9h-0.6v0.6v51.6v0.6h0.6h1.9h0.6v-0.6V74.9V74.3
					L415.4,74.3z"/>
			</g>
			<g>
				<path fill="#FFFFFF" d="M460.4,100.9h-25.9v23.7H464v1.9h-31.4V74.9H464v1.9h-29.5V99h25.9V100.9z"/>
				<path fill="#FFFFFF" d="M464,74.9v1.9h-29.5V99h25.9v1.9h-25.9v23.7H464v1.9h-31.4V74.9H464 M464.7,74.3H464h-31.4H432v0.6v51.6
					v0.6h0.6H464h0.6v-0.6v-1.9V124H464h-28.8v-22.4h25.2h0.6v-0.6V99v-0.6h-0.6h-25.2V77.5H464h0.6v-0.6v-1.9V74.3L464.7,74.3z"/>
			</g>
			<g>
				<path fill="#FFFFFF" d="M495.9,104.5H478v22.1h-1.9V74.9h16.4c5.2,0,9.3,1.3,12.3,4c3.1,2.7,4.6,6.3,4.6,10.9
					c0,3.5-1.1,6.6-3.3,9.2c-2.2,2.6-5,4.3-8.3,4.9l13.8,22.1v0.5h-2L495.9,104.5z M478,102.5h16.3c4,0,7.2-1.2,9.6-3.6
					c2.4-2.4,3.7-5.4,3.7-9.1c0-4-1.4-7.2-4.1-9.5c-2.7-2.3-6.4-3.5-11.1-3.5H478V102.5z"/>
				<path fill="#FFFFFF" d="M492.5,74.9c5.2,0,9.3,1.3,12.3,4c3.1,2.7,4.6,6.3,4.6,10.9c0,3.5-1.1,6.6-3.3,9.2
					c-2.2,2.6-5,4.3-8.3,4.9l13.8,22.1v0.5h-2l-13.7-22.1H478v22.1h-1.9V74.9H492.5 M478,102.5h16.3c4,0,7.2-1.2,9.6-3.6
					c2.4-2.4,3.7-5.4,3.7-9.1c0-4-1.4-7.2-4.1-9.5s-6.4-3.5-11.1-3.5H478V102.5 M492.5,74.3h-16.4h-0.6v0.6v51.6v0.6h0.6h1.9h0.6
					v-0.6v-21.4h16.9l13.5,21.8l0.2,0.3h0.4h2h0.6v-0.6V126v-0.2l-0.1-0.2l-13.3-21.3c3.1-0.8,5.7-2.4,7.8-4.9
					c2.3-2.7,3.4-6,3.4-9.6c0-4.8-1.6-8.6-4.8-11.4C502.2,75.7,497.9,74.3,492.5,74.3L492.5,74.3z M478.7,77.5h13.8
					c4.5,0,8.1,1.1,10.7,3.3c2.6,2.2,3.8,5.2,3.8,9c0,3.5-1.2,6.4-3.5,8.7c-2.3,2.3-5.4,3.4-9.2,3.4h-15.6V77.5L478.7,77.5z"/>
			</g>
		</g>
	</g>
</g>
</svg>
