<?xml version="1.0" encoding="utf-8"?>
<!-- Generator: Adobe Illustrator 18.0.0, SVG Export Plug-In . SVG Version: 6.00 Build 0)  -->
<!DOCTYPE svg PUBLIC "-//W3C//DTD SVG 1.1//EN" "http://www.w3.org/Graphics/SVG/1.1/DTD/svg11.dtd">
<svg version="1.1" id="Calque_1" xmlns="http://www.w3.org/2000/svg" xmlns:xlink="http://www.w3.org/1999/xlink" x="0px" y="0px"
	 viewBox="0 0 411.5 165.7" enable-background="new 0 0 411.5 165.7" xml:space="preserve">
<g>
	<polygon fill="#FFFFFF" points="78.4,83.6 102.1,69.1 78.4,55.1 54.8,69.2 	"/>
	<polygon fill="#E5E4E4" points="78.4,110.4 102.1,96.2 102.1,69.1 78.4,83.4 	"/>
	<polygon fill="#F3F4F5" points="54.8,96.3 78.4,110.7 78.4,83.6 54.8,69.2 	"/>
	<g>
		<g>
			<path fill="#272224" d="M179.8,118.4H167V154h-5.2v-35.6H149v-4.3h30.8V118.4z"/>
			<path fill="#272224" d="M208.3,135.5H191v14.1h20.1v4.3h-25.3v-39.9h25.1v4.3H191v12.8h17.3V135.5z"/>
			<path fill="#272224" d="M247,141.3c-0.5,4.2-2,7.5-4.7,9.8c-2.6,2.3-6.1,3.4-10.4,3.4c-4.7,0-8.5-1.7-11.3-5.1
				c-2.8-3.4-4.3-7.9-4.3-13.6V132c0-3.7,0.7-7,2-9.8c1.3-2.8,3.2-5,5.6-6.5c2.4-1.5,5.2-2.3,8.4-2.3c4.2,0,7.6,1.2,10.2,3.5
				c2.6,2.4,4,5.6,4.5,9.8h-5.3c-0.5-3.2-1.4-5.5-3-6.9c-1.5-1.4-3.7-2.1-6.4-2.1c-3.4,0-6,1.2-7.9,3.7c-1.9,2.5-2.9,6-2.9,10.6v3.9
				c0,4.3,0.9,7.8,2.7,10.3c1.8,2.6,4.3,3.8,7.6,3.8c2.9,0,5.2-0.7,6.7-2c1.6-1.3,2.6-3.6,3.1-6.9H247z"/>
			<path fill="#272224" d="M284.8,154h-5.3v-18.4h-20.1V154h-5.3v-39.9h5.3v17.1h20.1v-17.1h5.3V154z"/>
			<path fill="#272224" d="M338.7,154h-5.3v-18.4h-20.1V154H308v-39.9h5.3v17.1h20.1v-17.1h5.3V154z"/>
			<path fill="#272224" d="M376.1,114.1v27.1c0,3.8-1.2,6.8-3.5,9.2c-2.3,2.4-5.5,3.7-9.5,4l-1.4,0.1c-4.4,0-7.8-1.2-10.4-3.5
				c-2.6-2.4-3.9-5.6-3.9-9.7v-27.2h5.2v27c0,2.9,0.8,5.1,2.4,6.7c1.6,1.6,3.9,2.4,6.8,2.4c3,0,5.3-0.8,6.8-2.4
				c1.6-1.6,2.4-3.8,2.4-6.7v-27H376.1z"/>
			<path fill="#272224" d="M384.4,154v-39.9h13c4.3,0,7.6,0.9,9.8,2.7c2.2,1.8,3.3,4.4,3.3,7.9c0,1.9-0.5,3.5-1.6,4.9
				c-1.1,1.4-2.5,2.5-4.3,3.3c2.2,0.6,3.9,1.7,5.1,3.4c1.3,1.7,1.9,3.7,1.9,6c0,3.6-1.2,6.4-3.5,8.4c-2.3,2-5.6,3.1-9.8,3.1H384.4z
				 M389.6,131.1h7.9c2.3,0,4.1-0.6,5.5-1.7c1.4-1.2,2.1-2.7,2.1-4.7c0-2.2-0.6-3.8-1.9-4.8s-3.2-1.5-5.8-1.5h-7.8V131.1z
				 M389.6,135.3v14.4h8.7c2.4,0,4.4-0.6,5.8-1.9c1.4-1.3,2.1-3,2.1-5.2c0-4.8-2.6-7.2-7.8-7.2H389.6z"/>
		</g>
	</g>
	<path fill="#272224" d="M78.4,111.8L53.3,97.3V68.2l25.2-14.5l25.2,14.5v29.1L78.4,111.8z M56.3,95.5l22.1,12.8l22.1-12.8V70
		L78.4,57.2L56.3,70V95.5z"/>
	<path fill="#FB4800" d="M47.3,165.7l-25.7-14.8v-29.6l25.7-14.8L73,121.2v29.6L47.3,165.7z M25.7,148.5L47.3,161l21.6-12.5v-24.9
		l-21.6-12.5l-21.6,12.5V148.5z"/>
	<path fill="#A7DD00" d="M47.3,59.3L21.6,44.5V14.8L47.3,0L73,14.8v29.6L47.3,59.3z M25.7,42.1l21.6,12.5l21.6-12.5V17.2L47.3,4.7
		L25.7,17.2V42.1z"/>
	<path fill="#9733A2" d="M113.8,165.7l-25.7-14.8v-29.6l25.7-14.8l25.7,14.8v29.6L113.8,165.7z M92.2,148.5l21.6,12.5l21.6-12.5
		v-24.9l-21.6-12.5l-21.6,12.5V148.5z"/>
	<g>
		<g>
			<g>
				<path fill="#272224" d="M2.7,60l17,39.1L36.8,60H39v41.3h-1.5V62.3l-17.1,39.1h-1.2L2,62.5v38.9H0.5V60H2.7z"/>
				<path fill="#272224" d="M39,60v41.3h-1.5V62.3l-17.1,39.1h-1.2L2,62.5v38.9H0.5V60h2.2l17,39.1L36.8,60H39 M39.5,59.5H39h-2.2
					h-0.3l-0.1,0.3l-16.6,38l-16.5-38L3,59.5H2.7H0.5H0V60v41.3v0.5h0.5H2h0.5v-0.5V64.9l16.1,36.6l0.1,0.3h0.3h1.2h0.3l0.1-0.3
					L37,64.7v36.6v0.5h0.5H39h0.5v-0.5V60V59.5L39.5,59.5z"/>
			</g>
			<g>
				<path fill="#272224" d="M145.1,101.4h-1.5l-26.7-38.7v38.7h-1.6V60h1.6l26.7,38.6V60h1.5V101.4z"/>
				<path fill="#272224" d="M145.1,60v41.3h-1.5l-26.7-38.7v38.7h-1.6V60h1.6l26.7,38.6V60H145.1 M145.6,59.5h-0.5h-1.5H143V60v37
					l-25.8-37.3l-0.2-0.2h-0.3h-1.6h-0.5V60v41.3v0.5h0.5h1.6h0.5v-0.5V64.3l25.8,37.4l0.2,0.2h0.3h1.5h0.5v-0.5V60V59.5L145.6,59.5
					z"/>
			</g>
			<g>
				<path fill="#272224" d="M185,61.6h-15v39.8h-1.5V61.6h-15V60H185V61.6z"/>
				<path fill="#272224" d="M185,60v1.5h-15v39.8h-1.5V61.6h-15V60H185 M185.5,59.5H185h-31.6h-0.5V60v1.5v0.5h0.5h14.5v39.3v0.5
					h0.5h1.5h0.5v-0.5V62.1H185h0.5v-0.5V60V59.5L185.5,59.5z"/>
			</g>
			<g>
				<path fill="#272224" d="M195.6,83.9v17.5h-1.5V60H207c4.2,0,7.5,1.1,9.8,3.2c2.3,2.1,3.5,5.1,3.5,8.9c0,3.7-1.1,6.6-3.4,8.7
					c-2.3,2-5.5,3.1-9.7,3.1H195.6z M195.6,82.4H207c3.7,0,6.6-0.9,8.7-2.7c2.1-1.8,3.1-4.3,3.1-7.5c0-3.3-1-5.9-3.1-7.8
					c-2.1-1.9-5-2.8-8.7-2.8h-11.4V82.4z"/>
				<path fill="#272224" d="M207,60c4.2,0,7.5,1.1,9.8,3.2c2.3,2.1,3.5,5.1,3.5,8.9c0,3.7-1.1,6.6-3.4,8.7s-5.5,3.1-9.7,3.1h-11.6
					v17.5h-1.5V60H207 M195.6,82.4H207c3.7,0,6.6-0.9,8.7-2.7c2.1-1.8,3.1-4.3,3.1-7.5c0-3.3-1-5.9-3.1-7.8c-2.1-1.9-5-2.8-8.7-2.8
					h-11.4V82.4 M207,59.5h-12.9h-0.5V60v41.3v0.5h0.5h1.5h0.5v-0.5V84.4h11.1c4.3,0,7.7-1.1,10.1-3.3c2.4-2.1,3.6-5.2,3.6-9.1
					c0-3.9-1.2-7-3.7-9.2C214.7,60.6,211.3,59.5,207,59.5L207,59.5z M196.1,62.1H207c3.6,0,6.4,0.9,8.4,2.7c2,1.8,2.9,4.2,2.9,7.4
					c0,3-1,5.4-2.9,7.1c-2,1.7-4.8,2.6-8.4,2.6h-10.9V62.1L196.1,62.1z"/>
			</g>
			<g>
				<path fill="#272224" d="M253.1,80.9h-20.7v19H256v1.5h-25.2V60H256v1.5h-23.6v17.8h20.7V80.9z"/>
				<path fill="#272224" d="M256,60v1.5h-23.6v17.8h20.7v1.5h-20.7v19H256v1.5h-25.2V60H256 M256.5,59.5H256h-25.2h-0.5V60v41.3v0.5
					h0.5H256h0.5v-0.5v-1.5v-0.5H256h-23.1V81.4h20.2h0.5v-0.5v-1.5v-0.5h-0.5h-20.2V62.1H256h0.5v-0.5V60V59.5L256.5,59.5z"/>
			</g>
			<g>
				<path fill="#272224" d="M267.4,99.8h21.2v1.5h-22.8V60h1.6V99.8z"/>
				<path fill="#272224" d="M267.4,60v39.8h21.2v1.5h-22.8V60H267.4 M267.9,59.5h-0.5h-1.6h-0.5V60v41.3v0.5h0.5h22.8h0.5v-0.5v-1.5
					v-0.5h-0.5h-20.7V60V59.5L267.9,59.5z"/>
			</g>
			<g>
				<path fill="#272224" d="M299.2,99.8h21.2v1.5h-22.8V60h1.6V99.8z"/>
				<path fill="#272224" d="M299.2,60v39.8h21.2v1.5h-22.8V60H299.2 M299.7,59.5h-0.5h-1.6h-0.5V60v41.3v0.5h0.5h22.8h0.5v-0.5v-1.5
					v-0.5h-0.5h-20.7V60V59.5L299.7,59.5z"/>
			</g>
			<g>
				<path fill="#272224" d="M332.2,101.4h-1.5V60h1.5V101.4z"/>
				<path fill="#272224" d="M332.2,60v41.3h-1.5V60H332.2 M332.7,59.5h-0.5h-1.5h-0.5V60v41.3v0.5h0.5h1.5h0.5v-0.5V60V59.5
					L332.7,59.5z"/>
			</g>
			<g>
				<path fill="#272224" d="M368.8,80.9h-20.7v19h23.6v1.5h-25.2V60h25.2v1.5h-23.6v17.8h20.7V80.9z"/>
				<path fill="#272224" d="M371.7,60v1.5h-23.6v17.8h20.7v1.5h-20.7v19h23.6v1.5h-25.2V60H371.7 M372.2,59.5h-0.5h-25.2H346V60
					v41.3v0.5h0.5h25.2h0.5v-0.5v-1.5v-0.5h-0.5h-23.1V81.4h20.2h0.5v-0.5v-1.5v-0.5h-0.5h-20.2V62.1h23.1h0.5v-0.5V60V59.5
					L372.2,59.5z"/>
			</g>
			<g>
				<path fill="#272224" d="M397.2,83.7h-14.3v17.7h-1.5V60h13.2c4.1,0,7.4,1.1,9.9,3.2c2.5,2.1,3.7,5,3.7,8.7
					c0,2.8-0.9,5.3-2.6,7.4c-1.8,2.1-4,3.4-6.7,3.9l11,17.7v0.4h-1.6L397.2,83.7z M382.9,82.1h13c3.2,0,5.7-1,7.7-2.9
					c2-1.9,2.9-4.4,2.9-7.3c0-3.2-1.1-5.8-3.3-7.6c-2.2-1.9-5.1-2.8-8.9-2.8h-11.5V82.1z"/>
				<path fill="#272224" d="M394.5,60c4.1,0,7.4,1.1,9.9,3.2c2.5,2.1,3.7,5,3.7,8.7c0,2.8-0.9,5.3-2.6,7.4c-1.8,2.1-4,3.4-6.7,3.9
					l11,17.7v0.4h-1.6l-11-17.7h-14.3v17.7h-1.5V60H394.5 M382.9,82.1h13c3.2,0,5.7-1,7.7-2.9c2-1.9,2.9-4.4,2.9-7.3
					c0-3.2-1.1-5.8-3.3-7.6s-5.1-2.8-8.9-2.8h-11.5V82.1 M394.5,59.5h-13.2h-0.5V60v41.3v0.5h0.5h1.5h0.5v-0.5V84.2H397l10.8,17.4
					l0.1,0.2h0.3h1.6h0.5v-0.5V101v-0.1l-0.1-0.1l-10.7-17.1c2.5-0.6,4.6-1.9,6.3-4c1.8-2.2,2.7-4.8,2.7-7.7c0-3.8-1.3-6.9-3.8-9.1
					C402.2,60.6,398.8,59.5,394.5,59.5L394.5,59.5z M383.4,62.1h11c3.6,0,6.5,0.9,8.6,2.7c2.1,1.8,3.1,4.1,3.1,7.2
					c0,2.8-0.9,5.1-2.8,6.9c-1.9,1.8-4.3,2.7-7.3,2.7h-12.5V62.1L383.4,62.1z"/>
			</g>
		</g>
	</g>
</g>
</svg>
