<?xml version="1.0" encoding="utf-8"?>
<!-- Generator: Adobe Illustrator 18.0.0, SVG Export Plug-In . SVG Version: 6.00 Build 0)  -->
<!DOCTYPE svg PUBLIC "-//W3C//DTD SVG 1.1//EN" "http://www.w3.org/Graphics/SVG/1.1/DTD/svg11.dtd">
<svg version="1.1" id="Calque_1" xmlns="http://www.w3.org/2000/svg" xmlns:xlink="http://www.w3.org/1999/xlink" x="0px" y="0px"
	 viewBox="0 0 1005.6 404.8" enable-background="new 0 0 1005.6 404.8" xml:space="preserve">
<g>
	<polygon fill="#FFFFFF" points="191.6,204.3 249.4,168.8 191.6,134.6 133.9,169.1 	"/>
	<polygon fill="#E5E4E4" points="191.6,269.9 249.4,235 249.4,168.8 191.6,203.7 	"/>
	<polygon fill="#F3F4F5" points="133.9,235.2 191.6,270.5 191.6,204.3 133.9,169.1 	"/>
	<g>
		<g>
			<path fill="#FFFFFF" d="M439.4,289.3h-31.3v86.9h-12.8v-86.9h-31.3v-10.5h75.4V289.3z"/>
			<path fill="#FFFFFF" d="M509,331.2h-42.2v34.5h49.1v10.5h-61.9v-97.5h61.2v10.5h-48.4v31.4H509V331.2z"/>
			<path fill="#FFFFFF" d="M603.5,345.3c-1.2,10.3-5,18.3-11.4,23.9c-6.4,5.6-14.9,8.4-25.5,8.4c-11.5,0-20.7-4.1-27.7-12.4
				c-6.9-8.3-10.4-19.3-10.4-33.1v-9.4c0-9.1,1.6-17,4.9-23.9c3.2-6.9,7.8-12.1,13.8-15.8c5.9-3.7,12.8-5.5,20.6-5.5
				c10.4,0,18.7,2.9,24.9,8.7c6.2,5.8,9.9,13.8,10.9,24h-12.9c-1.1-7.8-3.5-13.4-7.3-16.9c-3.7-3.5-8.9-5.2-15.6-5.2
				c-8.2,0-14.6,3-19.3,9.1c-4.7,6.1-7,14.7-7,25.9v9.4c0,10.6,2.2,19,6.6,25.3c4.4,6.3,10.6,9.4,18.5,9.4c7.1,0,12.6-1.6,16.4-4.9
				c3.8-3.2,6.3-8.9,7.6-16.9H603.5z"/>
			<path fill="#FFFFFF" d="M695.9,376.2H683v-45h-49.1v45H621v-97.5h12.9v41.9H683v-41.9h12.9V376.2z"/>
			<path fill="#FFFFFF" d="M827.6,376.2h-12.9v-45h-49.1v45h-12.9v-97.5h12.9v41.9h49.1v-41.9h12.9V376.2z"/>
			<path fill="#FFFFFF" d="M919,278.8V345c0,9.2-2.9,16.7-8.7,22.6c-5.7,5.8-13.5,9.1-23.3,9.8l-3.4,0.1c-10.7,0-19.2-2.9-25.5-8.6
				c-6.3-5.8-9.5-13.7-9.6-23.8v-66.4h12.7v66c0,7.1,1.9,12.5,5.8,16.4c3.9,3.9,9.4,5.9,16.6,5.9c7.3,0,12.8-1.9,16.7-5.8
				c3.9-3.9,5.8-9.3,5.8-16.4v-66.1H919z"/>
			<path fill="#FFFFFF" d="M939.3,376.2v-97.5h31.9c10.6,0,18.5,2.2,23.9,6.6c5.3,4.4,8,10.8,8,19.4c0,4.6-1.3,8.6-3.9,12.1
				c-2.6,3.5-6.1,6.2-10.6,8.1c5.3,1.5,9.4,4.3,12.5,8.4c3.1,4.1,4.6,9,4.6,14.8c0,8.7-2.8,15.6-8.5,20.6c-5.7,5-13.7,7.5-24,7.5
				H939.3z M952.1,320.3h19.4c5.6,0,10.1-1.4,13.5-4.2c3.4-2.8,5.1-6.6,5.1-11.5c0-5.4-1.6-9.3-4.7-11.7c-3.1-2.4-7.9-3.7-14.3-3.7
				h-19V320.3z M952.1,330.6v35.1h21.2c6,0,10.7-1.5,14.2-4.7c3.5-3.1,5.2-7.4,5.2-12.8c0-11.7-6.4-17.6-19.1-17.6H952.1z"/>
		</g>
	</g>
	<path fill="#FFFFFF" d="M191.6,273.2l-61.5-35.5v-71l61.5-35.5l61.5,35.5v71L191.6,273.2z M137.6,233.3l54,31.2l54-31.2V171
		l-54-31.2l-54,31.2V233.3z"/>
	<path fill="#FB4800" d="M115.6,404.8l-62.7-36.2v-72.5l62.7-36.2l62.7,36.2v72.5L115.6,404.8z M62.9,362.9l52.8,30.5l52.8-30.5
		v-60.9l-52.8-30.5l-52.8,30.5V362.9z"/>
	<path fill="#A7DD00" d="M115.6,144.9l-62.7-36.2V36.2L115.6,0l62.7,36.2v72.5L115.6,144.9z M62.9,102.9l52.8,30.5l52.8-30.5V42
		l-52.8-30.5L62.9,42V102.9z"/>
	<path fill="#9733A2" d="M278,404.8l-62.7-36.2v-72.5l62.7-36.2l62.7,36.2v72.5L278,404.8z M225.2,362.9l52.8,30.5l52.8-30.5v-60.9
		L278,271.4l-52.8,30.5V362.9z"/>
	<g>
		<g>
			<g>
				<path fill="#FFFFFF" d="M6.6,146.7l41.5,95.5l41.7-95.5h5.5v101h-3.7v-95.4l-41.9,95.4h-3L5,152.7v95H1.2v-101H6.6z"/>
				<path fill="#FFFFFF" d="M95.3,146.7v101h-3.7v-95.4l-41.9,95.4h-3L5,152.7v95H1.2v-101h5.3l41.5,95.5l41.7-95.5H95.3
					 M96.6,145.4h-1.2h-5.5H89l-0.3,0.7l-40.5,92.9L7.7,146.2l-0.3-0.7H6.6H1.2H0v1.2v101v1.2h1.2H5h1.2v-1.2v-89l39.3,89.5l0.3,0.7
					h0.8h3h0.8l0.3-0.7l39.5-90v89.5v1.2h1.2h3.7h1.2v-1.2v-101V145.4L96.6,145.4z"/>
			</g>
			<g>
				<path fill="#FFFFFF" d="M354.5,247.7h-3.7l-65.2-94.6v94.6h-3.8v-101h3.8l65.2,94.4v-94.4h3.7V247.7z"/>
				<path fill="#FFFFFF" d="M354.5,146.7v101h-3.7l-65.2-94.6v94.6h-3.8v-101h3.8l65.2,94.4v-94.4H354.5 M355.8,145.4h-1.2h-3.7
					h-1.2v1.2v90.4L286.6,146l-0.4-0.5h-0.7h-3.8h-1.2v1.2v101v1.2h1.2h3.8h1.2v-1.2v-90.6l62.9,91.3l0.4,0.5h0.7h3.7h1.2v-1.2v-101
					V145.4L355.8,145.4z"/>
			</g>
			<g>
				<path fill="#FFFFFF" d="M452,150.4h-36.8v97.3h-3.7v-97.3h-36.8v-3.7H452V150.4z"/>
				<path fill="#FFFFFF" d="M452,146.7v3.7h-36.8v97.3h-3.7v-97.3h-36.8v-3.7H452 M453.3,145.4H452h-77.3h-1.2v1.2v3.7v1.2h1.2h35.5
					v96v1.2h1.2h3.7h1.2v-1.2v-96H452h1.2v-1.2v-3.7V145.4L453.3,145.4z"/>
			</g>
			<g>
				<path fill="#FFFFFF" d="M478,205v42.7h-3.7v-101h31.6c10.3,0,18.3,2.6,24,7.8c5.7,5.2,8.6,12.4,8.6,21.7
					c0,9.2-2.8,16.2-8.4,21.2s-13.5,7.5-23.8,7.6H478z M478,201.3h27.8c9.1,0,16.2-2.2,21.3-6.6c5.1-4.4,7.6-10.5,7.6-18.4
					c0-8.1-2.5-14.5-7.6-19c-5.1-4.6-12.2-6.8-21.3-6.8H478V201.3z"/>
				<path fill="#FFFFFF" d="M505.8,146.7c10.3,0,18.3,2.6,24,7.8c5.7,5.2,8.6,12.4,8.6,21.7c0,9.2-2.8,16.2-8.4,21.2
					c-5.6,5-13.5,7.5-23.8,7.6H478v42.7h-3.7v-101H505.8 M478,201.3h27.8c9.1,0,16.2-2.2,21.3-6.6c5.1-4.4,7.6-10.5,7.6-18.4
					c0-8.1-2.5-14.5-7.6-19c-5.1-4.6-12.2-6.8-21.3-6.8H478V201.3 M505.8,145.4h-31.6H473v1.2v101v1.2h1.2h3.7h1.2v-1.2v-41.4h27.1
					c10.5-0.1,18.8-2.8,24.6-7.9c5.8-5.2,8.8-12.7,8.8-22.2c0-9.6-3-17.2-9-22.6C524.8,148.2,516.4,145.4,505.8,145.4L505.8,145.4z
					 M479.2,151.7h26.6c8.7,0,15.6,2.2,20.4,6.5c4.8,4.3,7.2,10.4,7.2,18.1c0,7.4-2.4,13.3-7.2,17.4c-4.8,4.2-11.7,6.3-20.4,6.3
					h-26.6V151.7L479.2,151.7z"/>
			</g>
			<g>
				<path fill="#FFFFFF" d="M618.5,197.6h-50.6v46.3h57.7v3.7h-61.5v-101h61.5v3.7h-57.7v43.4h50.6V197.6z"/>
				<path fill="#FFFFFF" d="M625.6,146.7v3.7h-57.7v43.4h50.6v3.7h-50.6v46.3h57.7v3.7h-61.5v-101H625.6 M626.8,145.4h-1.2h-61.5
					h-1.2v1.2v101v1.2h1.2h61.5h1.2v-1.2v-3.7v-1.2h-1.2h-56.5v-43.8h49.4h1.2v-1.2v-3.7v-1.2h-1.2h-49.4v-40.9h56.5h1.2v-1.2v-3.7
					V145.4L626.8,145.4z"/>
			</g>
			<g>
				<path fill="#FFFFFF" d="M653.4,243.9h51.8v3.7h-55.6v-101h3.8V243.9z"/>
				<path fill="#FFFFFF" d="M653.4,146.7v97.3h51.8v3.7h-55.6v-101H653.4 M654.6,145.4h-1.2h-3.8h-1.2v1.2v101v1.2h1.2h55.6h1.2
					v-1.2v-3.7v-1.2h-1.2h-50.6v-96V145.4L654.6,145.4z"/>
			</g>
			<g>
				<path fill="#FFFFFF" d="M731.2,243.9H783v3.7h-55.6v-101h3.8V243.9z"/>
				<path fill="#FFFFFF" d="M731.2,146.7v97.3H783v3.7h-55.6v-101H731.2 M732.5,145.4h-1.2h-3.8h-1.2v1.2v101v1.2h1.2H783h1.2v-1.2
					v-3.7v-1.2H783h-50.6v-96V145.4L732.5,145.4z"/>
			</g>
			<g>
				<path fill="#FFFFFF" d="M811.8,247.7H808v-101h3.7V247.7z"/>
				<path fill="#FFFFFF" d="M811.8,146.7v101H808v-101H811.8 M813,145.4h-1.2H808h-1.2v1.2v101v1.2h1.2h3.7h1.2v-1.2v-101V145.4
					L813,145.4z"/>
			</g>
			<g>
				<path fill="#FFFFFF" d="M901.2,197.6h-50.6v46.3h57.7v3.7h-61.5v-101h61.5v3.7h-57.7v43.4h50.6V197.6z"/>
				<path fill="#FFFFFF" d="M908.3,146.7v3.7h-57.7v43.4h50.6v3.7h-50.6v46.3h57.7v3.7h-61.5v-101H908.3 M909.6,145.4h-1.2h-61.5
					h-1.2v1.2v101v1.2h1.2h61.5h1.2v-1.2v-3.7v-1.2h-1.2h-56.5v-43.8h49.4h1.2v-1.2v-3.7v-1.2h-1.2h-49.4v-40.9h56.5h1.2v-1.2v-3.7
					V145.4L909.6,145.4z"/>
			</g>
			<g>
				<path fill="#FFFFFF" d="M970.7,204.5h-35v43.2h-3.7v-101h32.2c10.1,0,18.2,2.6,24.2,7.8c6,5.2,9,12.3,9,21.3
					c0,6.9-2.1,12.9-6.4,18.1c-4.3,5.2-9.7,8.4-16.3,9.6l27,43.2v1h-4L970.7,204.5z M935.7,200.7h31.8c7.8,0,14-2.4,18.8-7.1
					c4.8-4.7,7.2-10.7,7.2-17.8c0-7.9-2.6-14.1-7.9-18.6c-5.3-4.5-12.5-6.8-21.7-6.8h-28.2V200.7z"/>
				<path fill="#FFFFFF" d="M964.1,146.7c10.1,0,18.2,2.6,24.2,7.8c6,5.2,9,12.3,9,21.3c0,6.9-2.1,12.9-6.4,18.1
					c-4.3,5.2-9.7,8.4-16.3,9.6l27,43.2v1h-4l-26.8-43.2h-35v43.2h-3.7v-101H964.1 M935.7,200.7h31.8c7.8,0,14-2.4,18.8-7.1
					c4.8-4.7,7.2-10.7,7.2-17.8c0-7.9-2.6-14.1-7.9-18.6c-5.3-4.5-12.5-6.8-21.7-6.8h-28.2V200.7 M964.1,145.4h-32.2h-1.2v1.2v101
					v1.2h1.2h3.7h1.2v-1.2v-42H970l26.5,42.6l0.4,0.6h0.7h4h1.2v-1.2v-1v-0.4l-0.2-0.3l-26-41.7c6.1-1.5,11.2-4.8,15.3-9.7
					c4.4-5.4,6.7-11.7,6.7-18.9c0-9.3-3.2-16.8-9.4-22.2C982.9,148.2,974.5,145.4,964.1,145.4L964.1,145.4z M936.9,151.7h26.9
					c8.9,0,15.9,2.2,20.9,6.5c5.1,4.3,7.5,10.1,7.5,17.6c0,6.8-2.3,12.5-6.8,16.9c-4.5,4.5-10.6,6.7-18,6.7h-30.6V151.7L936.9,151.7
					z"/>
			</g>
		</g>
	</g>
</g>
</svg>
