<?xml version="1.0" encoding="utf-8"?>
<!-- Generator: Adobe Illustrator 18.0.0, SVG Export Plug-In . SVG Version: 6.00 Build 0)  -->
<!DOCTYPE svg PUBLIC "-//W3C//DTD SVG 1.1//EN" "http://www.w3.org/Graphics/SVG/1.1/DTD/svg11.dtd">
<svg version="1.1" id="Calque_1" xmlns="http://www.w3.org/2000/svg" xmlns:xlink="http://www.w3.org/1999/xlink" x="0px" y="0px"
	 viewBox="0 0 61.8 61.8" enable-background="new 0 0 61.8 61.8" xml:space="preserve">
<g>
	<g>
		<circle fill="#E5E6E7" cx="30.9" cy="30.9" r="30.9"/>
	</g>
	<g>
		<g>
			<g>
				<polygon fill="#78909C" points="37.3,25 34.4,31.4 40.8,28.4 				"/>
				<path fill="#78909C" stroke="#778F9B" stroke-miterlimit="10" d="M44.2,30.7c-2.4,0-4.7-0.9-6.5-2.7c-1.7-1.7-2.7-4-2.7-6.5
					c0-2.4,0.9-4.7,2.7-6.5c1.7-1.7,4-2.7,6.5-2.7c2.4,0,4.7,0.9,6.5,2.7c1.7,1.7,2.7,4,2.7,6.5c0,2.4-0.9,4.7-2.7,6.5
					C48.9,29.8,46.6,30.7,44.2,30.7z"/>
				<path fill="#FFFFFF" d="M44.2,13.5c-2.2,0-4.2,0.8-5.7,2.4c-1.5,1.5-2.4,3.6-2.4,5.7c0,2.2,0.8,4.2,2.4,5.7
					c1.5,1.5,3.6,2.4,5.7,2.4c2.2,0,4.2-0.8,5.7-2.4c1.5-1.5,2.4-3.6,2.4-5.7c0-2.2-0.8-4.2-2.4-5.7C48.4,14.3,46.4,13.5,44.2,13.5z
					"/>
			</g>
		</g>
	</g>
	<g id="_x31_4_1_">
		<g id="_x31_0_1_">
			<g>
				<path fill="#DDB09D" d="M23.3,38.7c-0.5-0.1-1-0.2-1.5-0.5c-0.4-0.2-0.7-0.5-1-0.8c-0.2,0.4-0.5,0.8-0.6,1.2c0,0,0,0.1,0,0.1
					c0.6,2.1,1.3,4.3,3.2,5.7c0.3,0.2,0.6,0.4,0.9,0.5c0.8,0.3,1.7,0.1,2.4-0.4c1-0.7,1-2,1.3-3.1c0.3-0.9,0.6-1.8,0.8-2.7
					c0,0,0-0.1,0-0.1l-0.3-0.9C27,38.6,25.1,38.9,23.3,38.7z"/>
				<g>
					<path fill="#DDB09D" d="M28,36.3C28,36.3,28,36.2,28,36.3c-0.2-1.1-0.1-2.1-0.1-2.7c-0.1,0.1-0.3,0.2-0.4,0.4
						c-0.1,0.1-0.1,0.1-0.2,0.2c-0.7,0.6-1.4,0.9-2.2,0.9c-0.7,0-1.4-0.3-2.2-0.9C23,34.1,22.9,34,22.9,34c-0.4-0.3-0.7-0.7-1.1-1
						c0.1,1,0,2-0.2,2.9c-0.2,0.6-0.5,1-0.8,1.5c0.3,0.3,0.6,0.6,1,0.8c0.5,0.3,1,0.4,1.5,0.5c1.8,0.3,3.7-0.1,5.2-1L28,36.3
						L28,36.3z"/>
					<path fill="#F9CFB3" d="M29.9,27C29.9,27,29.9,27,29.9,27c-0.3-0.6-0.5-1.4-0.6-2c-0.2-0.6-0.5-1.1-0.6-1.8
						c0.1,0.5-1.5,1.3-1.9,1.6c-0.5,0.3-1,0.5-1.6,0.8v6.9v2.5c0.7,0,1.4-0.3,2.2-0.9c0.1-0.1,0.1-0.1,0.2-0.2
						c0.1-0.1,0.3-0.2,0.4-0.4c0.7-0.7,1.4-1.5,1.7-2.5c0.1-0.2,0-0.2,0.1-0.5c0.2,0,0.5-0.1,0.6-0.2c0.1-0.2,0.1-0.3,0.1-0.5
						c0-0.2,0-0.8,0.1-1.1C30.6,27.9,30.3,27.7,29.9,27z"/>
					<path fill="#E2BBA1" d="M25.2,25.6c0,0-2,0.6-2.8,1c-1,0.5-1.9,1.6-2.8,2.3c0.1,0.6,0.4,1.6,0.9,1.6c0.2,0,0.3,0.2,0.3,0.4
						c0.1,0.8,0.5,1.4,1,2c0.3,0.4,0.7,0.7,1.1,1c0.1,0.1,0.1,0.1,0.2,0.2c0.7,0.6,1.4,0.9,2.2,0.9l0-2.5L25.2,25.6
						C25.2,25.6,25.2,25.6,25.2,25.6L25.2,25.6z"/>
				</g>
				<path fill="#E2BBA1" d="M20.9,37.3c0,0.1,0,0.1,0,0.2c0,0,0,0,0-0.1C20.8,37.3,20.9,37.3,20.9,37.3z"/>
				<path fill="#7C381F" d="M26.2,18.4c-2.5-0.3-4.9,0.7-6.4,2.8c-0.4,0.6-0.8,1.3-1,2c-0.6,1.7-1,3.6-0.6,5.3
					c0.1,0.8,0.5,1.6,1,2.3c0.5,0.6,1.1,1.1,1.8,1.3c-0.1-0.1-0.2-0.3-0.3-0.5c-0.1-0.2-0.2-0.3-0.2-0.5c-0.1-0.3-0.2-0.6-0.2-0.9
					c-0.1-0.6,0.1-1.2,0.4-1.7c0.8-1.1,2.8-1.6,4-2.1c1.2-0.5,4.1-1.5,4-3.2c0.1,0.8,0.3,1.7,0.6,2.5c0.5,1.1,1.1,2,1.2,3.2
					c0.1,1.4-0.2,2.7-0.9,3.9c0.5,0,0.9-0.2,1.2-0.6c1.6-1.8,2.3-4.3,2.3-6.6c0-2-0.7-3.7-2.3-5c-0.1-0.1-1.5-0.9-1.5-0.6
					C29.2,19.1,26.8,18.5,26.2,18.4z"/>
			</g>
			<g>
				<path fill="#738D96" d="M37.3,47.5c-0.2-2.2-0.5-4.2-0.7-5.2c-0.6-2.1-1.8-2.7-3.9-3.3c-0.3-0.1-4.6-0.7-4.3-1.7
					c-0.9,3.1-2.1,5.8-3,8.9c-0.1,0.4-0.3,0.9-0.4,1.3H37.3z"/>
				<path fill="#657D83" d="M16.5,47.5H24c-0.1-0.4-0.3-0.9-0.4-1.3c-0.9-3.1-1.7-6-2.6-9.1c0,0.2-2.1,1.2-2.3,1.2
					c-0.9,0.3-1.6,0.3-2.3,0.5C16.8,41.7,16.6,44.6,16.5,47.5z"/>
				<path fill="#E6E7E8" d="M23.5,47.5h2c0.4-1,0.9-2.1,1.3-3.1c0.3-0.8,0.7-1.4,1-2.3c0.1-0.5,0.4-0.9,0.5-1.4
					c0.1-0.2,0.1-1.4,0.2-1.5c-1,0.9-2.4,1.4-3.8,1.4c-0.8,0-1.6-0.2-2.3-0.5c-0.6-0.3-1.2-1-1.9-1C21.3,42,22.3,44.7,23.5,47.5z"/>
				<g>
					<g>
						<path fill="#657D83" d="M27.6,47.5c1.3-1.9,2.5-3.6,2.4-3.7c0,0-1.4-2.4-1.4-2.4l1.8,0.2c-0.2-0.6-0.6-3.5-1.2-3.7l-1-0.8
							l-2.2,6.6l-1.2,3.9H27.6z"/>
						<path fill="#738D96" d="M19,43.8c-0.1,0.1,1.1,1.8,2.4,3.7h2.7l-1.2-3.9l-2-6.6l-1.2,0.8c-0.5,0.3-1,3.2-1.2,3.7l1.8-0.2
							C20.4,41.3,19,43.8,19,43.8z"/>
					</g>
				</g>
				<path fill="#657D83" d="M16.9,47.5c-0.1-1.1-0.2-2.2-0.2-3.3c0-1.8-0.1-3.6-0.4-5.4c-0.4,0.1-0.7,0.3-1.2,0.4
					c-3.1,0.8-3.2,3-3.5,5.2c-0.1,1,0,2-0.1,3H16.9z"/>
			</g>
			<path fill="#7C381F" d="M21.6,35.8c-0.1,0.2-0.1,0.5-0.3,0.6c-0.1,0.1-0.5,0.3-0.5,0.4c0.2,0.7,0.2,1.5,0,2.2
				c-0.1,0.6-0.4,1.3-1,1.6c-0.1,0-0.2,0.1-0.2,0.1c0,0-0.1,0-0.1,0.1c-0.2,0.2-0.1,0.2-0.1,0.4c0,0,0,0.1,0,0.1c0,0.3,0,0.6,0,0.9
				c0,0.3-0.1,0.5-0.2,0.8c-0.3,1-0.6,1.9-1.5,2.4c-0.6,0.3-1.4,0.5-1.6,1.2c-0.8-2.3,0.3-4.5,2.1-5.9c0,0,0,0,0,0
				c0.1,0,0.1-0.1,0.2-0.2c0.1-0.1,0-0.2,0-0.3c0-0.1-0.1-0.1-0.1-0.2c-0.3-0.8-0.2-1.7,0.3-2.4c0.4-0.5,1.7-0.7,1.6-1.5
				c0-0.2-0.1-0.4-0.2-0.5c-0.7-1.3,0.5-2.2,1.5-2.8c0.1,0,0.2-0.1,0.2-0.1c0.1,0.1,0.1,0.1,0.2,0.2C21.9,33.9,21.8,34.9,21.6,35.8z
				"/>
		</g>
		<path fill="#E6E7E8" d="M19.5,40.9c-0.2,0.2-0.1,0.2-0.1,0.4c0,0,0,0.1,0,0.1c-0.4-0.2-0.8-0.4-1.2-0.6c0,0,0,0,0,0
			c0.1,0,0.1-0.1,0.2-0.2c0.1-0.1,0-0.2,0-0.3C18.7,40.5,19.2,40.6,19.5,40.9C19.5,40.9,19.5,40.9,19.5,40.9z"/>
	</g>
</g>
</svg>
